Poster: 
http://imgr.us/images/l0nkouu4jedjdpjbpp0.jpg

Info:

IMDB Link - http://www.imdb.com/title/tt1623205/

Source - Oz the Great and Powerful 2013 TS XviD MP3 - MiNiSTRY (Thumbs Up + Respect)

General
Complete name : Oz the Great and Powerful 2013 TS x264-SSDD.mp4
Format : MPEG-4
Format profile : Base Media
Codec ID : isom
File size : 550 MiB
Duration : 2h 4mn
Overall bit rate mode : Variable
Overall bit rate : 620 Kbps

Video
ID : 1
Format : AVC
Format/Info : Advanced Video Codec
Format profile : High@L4.1
Format settings, CABAC : Yes
Format settings, ReFrames : 4 frames
Codec ID : avc1
Codec ID/Info : Advanced Video Coding
Duration : 2h 4mn
Bit rate : 566 Kbps
Maximum bit rate : 2 305 Kbps
Width : 704 pixels
Height : 272 pixels
Display aspect ratio : 2.588
Frame rate mode : Constant
Frame rate : 25.000 fps
Color space : YUV
Chroma subsampling : 4:2:0
Bit depth : 8 bits
Scan type : Progressive
Bits/(Pixel*Frame) : 0.118
Stream size : 503 MiB (91%)
Writing library : x264 core 129 r2245 bc13772

Audio
ID : 2
Format : AAC
Format/Info : Advanced Audio Codec
Format profile : LC
Codec ID : 40
Duration : 2h 4mn
Bit rate mode : Variable
Bit rate : 48.0 Kbps
Maximum bit rate : 55.2 Kbps
Channel(s) : 2 channels
Channel positions : Front: L R
Sampling rate : 48.0 KHz
Compression mode : Lossy
Stream size : 44.4 MiB (8%)


Screens: 
http://imgr.us/images/lgi5j931oqxeyltjrvx.png 
http://imgr.us/images/ttlf763k1r6hh7wxrq.png 
http://imgr.us/images/im6ce286lb2iq4xkyknh.png 
http://imgr.us/images/bq30hc23itpajfofpi.png



